<?xml version="1.0" encoding="UTF-8" standalone="no"?>
<!-- Created with Inkscape (http://www.inkscape.org/) -->

<svg
   xmlns:dc="http://purl.org/dc/elements/1.1/"
   xmlns:cc="http://creativecommons.org/ns#"
   xmlns:rdf="http://www.w3.org/1999/02/22-rdf-syntax-ns#"
   xmlns:svg="http://www.w3.org/2000/svg"
   xmlns="http://www.w3.org/2000/svg"
   xmlns:sodipodi="http://sodipodi.sourceforge.net/DTD/sodipodi-0.dtd"
   xmlns:inkscape="http://www.inkscape.org/namespaces/inkscape"
   id="svg2"
   sodipodi:docname="data_rover_logo.svg"
   viewBox="0 0 288.69134 246.789"
   version="1.1"
   inkscape:version="0.92.1 r15371"
   width="307.93744"
   height="263.24161"
   inkscape:export-filename="/home/gringer/bioinf/stathack/data_rover_logo.png"
   inkscape:export-xdpi="31.18"
   inkscape:export-ydpi="31.18">
  <defs
     id="defs21" />
  <title
     id="title2920">Dog With Ball</title>
  <sodipodi:namedview
     id="base"
     bordercolor="#666666"
     inkscape:pageshadow="2"
     inkscape:window-y="-4"
     pagecolor="#ffffff"
     inkscape:window-height="753"
     inkscape:window-maximized="1"
     inkscape:zoom="1.5253126"
     inkscape:window-x="-4"
     showgrid="false"
     borderopacity="1.0"
     inkscape:current-layer="layer1"
     inkscape:cx="107.58083"
     inkscape:cy="95.378293"
     inkscape:window-width="1280"
     inkscape:pageopacity="0.0"
     inkscape:document-units="px"
     fit-margin-top="10"
     fit-margin-left="10"
     fit-margin-right="10"
     fit-margin-bottom="10" />
  <g
     id="layer1"
     inkscape:label="Layer 1"
     inkscape:groupmode="layer"
     transform="translate(-225.42205,-399.9719)">
    <path
       style="fill:#000000;stroke:#000000;stroke-width:1px"
       d="m 491.30898,435.30587 c 3.5053,13.18648 -8.54679,20.99037 -18.06477,25.61961 -12.53794,6.09805 -27.9679,-6.33152 -42.68321,-4.31855 -20.48287,-2.14579 -41.67973,-0.17164 -60.54131,8.39727 -33.09788,24.57781 -96.84392,0.77325 -120.77685,24.50863 -16.25651,-6.52138 -14.1883,30.29623 -13.43341,31.30275 0,0 1.45773,-1.35457 2.26128,-5.55897 1.87884,-22.52296 20.8263,11.80473 16.1641,24.01448 7.32111,10.60465 24.19011,-5.3886 23.07007,-14.8538 0.0671,6.18891 3.16736,20.19609 5.50532,29.08866 -1.15435,10.1978 -6.95488,19.63963 -9.44774,29.77574 -3.89699,13.05295 -4.92289,25.39771 -20.48674,27.6441 -18.76645,14.73395 20.44324,11.20177 23.54293,-1.01472 8.03321,-11.17586 17.8135,-20.70996 22.84592,-33.98591 7.56552,-26.16272 35.49482,-18.26241 32.24846,-15.54376 -8.44932,8.64644 -7.42894,20.96883 2.87288,27.22312 8.98526,5.21991 22.48999,5.90678 25.84607,2.51084 1.67794,-8.21541 -7.27882,-7.29283 -13.17949,-9.45328 -37.08697,-13.84219 61.9739,-76.00763 71.4899,-62.48985 2.76326,6.10359 5.64184,20.94564 15.31583,25.57551 13.28852,5.24448 15.46009,20.95579 27.13073,26.76819 19.12806,16.53329 17.63707,14.88958 4.60753,33.56527 -0.62999,10.30298 18.4459,7.27879 16.04561,-3.79058 1.51553,-5.50833 4.02218,-0.54017 5.01534,5.06054 1.33413,8.20217 -2.30447,15.80758 -6.98015,21.60162 -2.32872,2.87593 -4.53523,5.48642 -5.08704,7.89417 9.75054,5.96618 22.44063,-1.8972 20.88663,-13.32048 -0.28842,-7.47066 -0.11065,-15.06016 3.99396,-21.66211 7.09374,-12.46962 -9.92373,-20.7628 -15.31904,-31.54569 4.21369,13.7193 13.50985,-2.9931 9.42778,-9.1284 -6.31201,-7.51286 -18.11903,-4.07864 -9.04615,-14.07747 3.76063,-11.40675 6.67403,-23.01574 7.93577,-34.94627 2.12498,-13.4139 -15.22841,-20.72005 -11.69737,-33.49694 6.73197,-8.45969 16.6877,-15.57887 20.59856,-26.34771 7.77693,-11.6763 -3.1191,-23.53014 0.67082,-35.67082 0.52243,-15.33498 -12.66344,9.97647 -10.73222,20.65481 z"
       id="path2830"
       inkscape:connector-curvature="0"
       sodipodi:nodetypes="cscccccccccccccccccccccccccccccccccc" />
    <text
       xml:space="preserve"
       style="font-style:normal;font-variant:normal;font-weight:normal;font-stretch:normal;font-size:60px;line-height:23.4375px;font-family:'Linux Biolinum';-inkscape-font-specification:'Linux Biolinum, Normal';font-variant-ligatures:normal;font-variant-caps:normal;font-variant-numeric:normal;font-feature-settings:normal;text-align:start;letter-spacing:0px;word-spacing:0px;writing-mode:lr-tb;text-anchor:start;fill:#000000;fill-opacity:1;stroke:none;stroke-width:0.9375px;stroke-linecap:butt;stroke-linejoin:miter;stroke-opacity:1"
       x="238.22751"
       y="462.16843"
       id="text4528"><tspan
         sodipodi:role="line"
         id="tspan4526"
         x="238.22751"
         y="462.16843"
         style="font-style:normal;font-variant:normal;font-weight:normal;font-stretch:normal;font-size:60px;font-family:'Linux Biolinum';-inkscape-font-specification:'Linux Biolinum, Normal';font-variant-ligatures:normal;font-variant-caps:normal;font-variant-numeric:normal;font-feature-settings:normal;text-align:start;writing-mode:lr-tb;text-anchor:start;stroke-width:0.9375px">Data</tspan></text>
    <text
       xml:space="preserve"
       style="font-style:normal;font-variant:normal;font-weight:normal;font-stretch:normal;font-size:60px;line-height:23.4375px;font-family:'Linux Biolinum';-inkscape-font-specification:'Linux Biolinum, Normal';font-variant-ligatures:normal;font-variant-caps:normal;font-variant-numeric:normal;font-feature-settings:normal;text-align:start;letter-spacing:0px;word-spacing:0px;writing-mode:lr-tb;text-anchor:start;fill:#000000;fill-opacity:1;stroke:none;stroke-width:0.9375px;stroke-linecap:butt;stroke-linejoin:miter;stroke-opacity:1"
       x="296.00253"
       y="624.4303"
       id="text4532"><tspan
         sodipodi:role="line"
         id="tspan4530"
         x="296.00253"
         y="624.4303"
         style="font-style:normal;font-variant:normal;font-weight:normal;font-stretch:normal;font-size:60px;font-family:'Linux Biolinum';-inkscape-font-specification:'Linux Biolinum, Normal';font-variant-ligatures:normal;font-variant-caps:normal;font-variant-numeric:normal;font-feature-settings:normal;text-align:start;writing-mode:lr-tb;text-anchor:start;stroke-width:0.9375px">Rover</tspan></text>
  </g>
  <metadata
     id="metadata18">
    <rdf:RDF>
      <cc:Work>
        <dc:format>image/svg+xml</dc:format>
        <dc:type
           rdf:resource="http://purl.org/dc/dcmitype/StillImage" />
        <cc:license
           rdf:resource="http://creativecommons.org/publicdomain/zero/1.0/" />
        <dc:publisher>
          <cc:Agent
             rdf:about="http://openclipart.org/">
            <dc:title>Openclipart</dc:title>
          </cc:Agent>
        </dc:publisher>
        <dc:title>Dog With Ball</dc:title>
        <dc:date>2010-04-07T00:38:15</dc:date>
        <dc:description>Dog chasing ball.</dc:description>
        <dc:source>https://openclipart.org/detail/38731/dog-chasing-ball-by-mazeo</dc:source>
        <dc:creator>
          <cc:Agent>
            <dc:title>mazeo</dc:title>
          </cc:Agent>
        </dc:creator>
        <dc:subject>
          <rdf:Bag>
            <rdf:li>ball</rdf:li>
            <rdf:li>chase</rdf:li>
            <rdf:li>chasing</rdf:li>
            <rdf:li>dog</rdf:li>
          </rdf:Bag>
        </dc:subject>
      </cc:Work>
      <cc:License
         rdf:about="http://creativecommons.org/publicdomain/zero/1.0/">
        <cc:permits
           rdf:resource="http://creativecommons.org/ns#Reproduction" />
        <cc:permits
           rdf:resource="http://creativecommons.org/ns#Distribution" />
        <cc:permits
           rdf:resource="http://creativecommons.org/ns#DerivativeWorks" />
      </cc:License>
    </rdf:RDF>
  </metadata>
</svg>
